<svg xmlns="http://www.w3.org/2000/svg" xmlns:xlink="http://www.w3.org/1999/xlink" viewBox="3998.5 547 59 59">
  <defs>
    <style>
      .cls-1 {
        fill: #b2b2b2;
      }

      .cls-2 {
        fill: #fff;
      }

      .cls-3 {
        filter: url(#Ellipse_26);
      }
    </style>
    <filter id="Ellipse_26" x="3998.5" y="547" width="59" height="59" filterUnits="userSpaceOnUse">
      <feOffset dy="3" input="SourceAlpha"/>
      <feGaussianBlur stdDeviation="3" result="blur"/>
      <feFlood flood-opacity="0.161"/>
      <feComposite operator="in" in2="blur"/>
      <feComposite in="SourceGraphic"/>
    </filter>
  </defs>
  <g id="Group_354" data-name="Group 354" transform="translate(2932.5 -932)">
    <g class="cls-3" transform="matrix(1, 0, 0, 1, -2932.5, 932)">
      <circle id="Ellipse_26-2" data-name="Ellipse 26" class="cls-1" cx="20.5" cy="20.5" r="20.5" transform="translate(4007.5 553)"/>
    </g>
    <path id="Union_4" data-name="Union 4" class="cls-2" d="M9.132,22.011V20.419A9.352,9.352,0,0,1,5.7,18.96L4.548,20.112,1.9,17.463l1.2-1.2a9.347,9.347,0,0,1-1.317-3.385H0V9.132H1.876a9.359,9.359,0,0,1,1.408-3.2L1.9,4.548,4.548,1.9,5.982,3.332A9.362,9.362,0,0,1,9.132,2.06V0h3.747V2.06a9.359,9.359,0,0,1,3.15,1.272L17.463,1.9l2.649,2.649L18.726,5.934a9.35,9.35,0,0,1,1.408,3.2h1.877v3.747H20.229a9.339,9.339,0,0,1-1.317,3.384l1.2,1.2-2.649,2.649L16.311,18.96a9.35,9.35,0,0,1-3.432,1.459v1.592ZM7.363,7.6a5.151,5.151,0,1,0,3.642-1.509A5.117,5.117,0,0,0,7.363,7.6Z" transform="translate(1084.495 1494.848)"/>
  </g>
</svg>
