<svg xmlns="http://www.w3.org/2000/svg" viewBox="-1786.897 250.826 64.479 62.41">
  <defs>
    <style>
      .cls-1 {
        fill: #dcd0c3;
      }
    </style>
  </defs>
  <g id="half-moon" transform="translate(-1786.897 250.826)">
    <g id="Group_304" data-name="Group 304">
      <path id="Path_5907" data-name="Path 5907" class="cls-1" d="M74.226,204.267l-11.33.877-15.37-4.657L36.7,188.919,32.287,176.5l.888-13.1-7.809,4.712-4.787,5.806L16.3,184.889l2.264,17.872,8.817,11.73L37.952,220l11.21,1.007,15.077-4.777,11.178-11.178Z" transform="translate(-14.534 -160.086)"/>
      <path id="Path_5908" data-name="Path 5908" d="M18.8,144.173A32.2,32.2,0,0,1,20.861,132.8,32.242,32.242,0,1,0,62.41,174.338,32.243,32.243,0,0,1,18.8,144.173Zm36.772,36.935a29.6,29.6,0,0,1-34.844,9.109,29.222,29.222,0,0,1-9.391-6.336,29.607,29.607,0,0,1,5.351-46.044,35.263,35.263,0,0,0-.574,6.336,34.863,34.863,0,0,0,10.236,24.7,34.794,34.794,0,0,0,24.7,10.225,34.388,34.388,0,0,0,6.336-.574A30.73,30.73,0,0,1,55.576,181.108Z" transform="translate(0 -132.8)"/>
    </g>
    <path id="Path_5909" data-name="Path 5909" d="M435.443,252.886a1.343,1.343,0,1,0-1.343-1.343A1.343,1.343,0,0,0,435.443,252.886Z" transform="translate(-387.081 -237.484)"/>
    <path id="Path_5910" data-name="Path 5910" d="M359.7,387.943a1.35,1.35,0,0,0,1.343,1.343,1.343,1.343,0,1,0-1.343-1.343Z" transform="translate(-320.74 -359.11)"/>
    <path id="Path_5911" data-name="Path 5911" d="M571.843,213a1.343,1.343,0,1,0,1.343,1.343A1.343,1.343,0,0,0,571.843,213Z" transform="translate(-508.707 -204.313)"/>
    <path id="Path_5912" data-name="Path 5912" d="M348.642,141.286a1.343,1.343,0,1,0-1.343-1.343A1.336,1.336,0,0,0,348.642,141.286Z" transform="translate(-309.682 -137.972)"/>
    <path id="Path_5913" data-name="Path 5913" d="M261.743,232.115h1.343V234.8a1.343,1.343,0,0,0,2.686,0v-2.686h1.343a1.343,1.343,0,0,0,0-2.686h-1.343v-2.686a1.343,1.343,0,1,0-2.686,0v2.686h-1.343a1.343,1.343,0,1,0,0,2.686Z" transform="translate(-232.195 -215.37)"/>
    <path id="Path_5914" data-name="Path 5914" d="M472.643,368.515h1.343V371.2a1.343,1.343,0,1,0,2.686,0v-2.686h1.343a1.343,1.343,0,1,0,0-2.686h-1.343v-2.686a1.343,1.343,0,0,0-2.686,0v2.686h-1.343a1.343,1.343,0,0,0,0,2.686Z" transform="translate(-420.252 -336.996)"/>
  </g>
</svg>
