<?xml version="1.0" encoding="utf-8"?>
<!-- Generator: Adobe Illustrator 18.0.0, SVG Export Plug-In . SVG Version: 6.00 Build 0)  -->
<!DOCTYPE svg PUBLIC "-//W3C//DTD SVG 1.1//EN" "http://www.w3.org/Graphics/SVG/1.1/DTD/svg11.dtd">
<svg version="1.1" id="Layer_1" xmlns="http://www.w3.org/2000/svg" xmlns:xlink="http://www.w3.org/1999/xlink" x="0px" y="0px"
	 viewBox="0 0 595.3 841.9" enable-background="new 0 0 595.3 841.9" xml:space="preserve">
<g>
	<polygon fill="#DCD0C3" points="520.6,578.5 476.7,577.6 419.3,553.9 382,505.3 369.7,455.8 378.1,405.7 346.3,420.9 325.6,441.4 
		305,482 307,551.7 336.5,600.2 375.1,625.4 417.8,633.5 477.7,620.8 524.9,582 	"/>
	<polygon points="520.6,578.5 520.7,576.5 477.1,575.6 420.6,552.2 383.9,504.4 371.8,455.7 380.7,402.2 345.1,419.2 324,440.2 
		303,481.6 305,552.3 335,601.6 374.3,627.3 417.9,635.6 478.6,622.7 528.1,582 521.4,576.5 520.7,576.5 520.6,578.5 519.4,580.1 
		521.7,582 476.8,618.9 417.8,631.4 375.9,623.5 338,598.7 309,551.1 307.1,482.5 327.3,442.6 347.4,422.6 375.5,409.2 367.7,455.9 
		380.1,506.2 418,555.5 476.3,579.6 520.6,580.5 520.6,578.5 519.4,580.1 	"/>
	<path d="M375.7,436.8c1.5-15.4,5.8-29.9,12.2-43c-48.6,13.1-86.5,55.1-91.7,108.3c-6.7,68.5,43.4,129.5,111.9,136.2
		c53.1,5.2,101.7-23.7,124-68.9c-14.1,3.8-29.1,5.2-44.6,3.7C419.1,566.3,368.9,505.3,375.7,436.8z M503.2,592.8
		c-7.8,8.3-16.8,15.3-26.7,20.9c-20.5,11.6-43.8,16.6-67.4,14.3c-15.3-1.5-30-6-43.4-13.3c-13-7-24.4-16.4-33.7-27.9
		c-9.4-11.5-16.4-24.4-20.8-38.5c-4.5-14.6-6.1-29.8-4.6-45.2c2.3-23.6,11.7-45.5,27.1-63.4c7.4-8.6,16.1-16.1,25.7-22.1
		c3.5-2.2,7-4.2,10.6-5.9c-2.2,7.9-3.8,15.9-4.6,24.2c-1.8,18.1,0,36.1,5.4,53.4c5.2,16.7,13.5,32,24.6,45.6s24.6,24.6,39.9,33
		c15.9,8.6,33.1,13.9,51.3,15.7c8.2,0.8,16.5,0.9,24.6,0.2C508.7,586.8,506.1,589.9,503.2,592.8z"/>
	<path d="M375.7,436.8l2,0.2c1.5-15.2,5.7-29.4,12-42.3l2-4l-4.3,1.2c-49.4,13.3-87.9,56-93.2,110c-0.4,4.2-0.6,8.4-0.6,12.5
		c0,64.4,48.9,119.5,114.3,125.9c4.2,0.4,8.4,0.6,12.5,0.6c49,0,92.6-28.3,113.5-70.7l2-4l-4.3,1.2c-10.2,2.7-20.8,4.2-31.8,4.2
		c-4,0-8-0.2-12.1-0.6c-63.3-6.2-110.7-59.6-110.6-121.9c0-4,0.2-8.1,0.6-12.1L375.7,436.8l-2-0.2c-0.4,4.2-0.6,8.4-0.6,12.5
		c0,64.4,48.9,119.5,114.3,125.9c4.2,0.4,8.3,0.6,12.5,0.6c11.3,0,22.3-1.5,32.8-4.3l-0.5-2l-1.8-0.9c-20.2,41-62.5,68.4-109.9,68.4
		c-4,0-8.1-0.2-12.1-0.6c-63.3-6.2-110.7-59.6-110.6-121.9c0-4,0.2-8.1,0.6-12.1c5.1-52.2,42.4-93.6,90.2-106.5l-0.5-2l-1.8-0.9
		c-6.6,13.3-10.9,28-12.4,43.7L375.7,436.8z M503.2,592.8l-1.5-1.4c-7.7,8.1-16.5,15-26.2,20.5c-16.9,9.6-35.8,14.5-55.1,14.5
		c-3.7,0-7.4-0.2-11.1-0.5c-15.1-1.5-29.4-5.9-42.6-13c-12.8-6.9-23.9-16.2-33.1-27.4l0,0c-9.3-11.3-16.1-24-20.5-37.9l0,0
		c-3.4-10.8-5-21.9-5-33.2c0-3.7,0.2-7.5,0.6-11.2c2.3-23.2,11.5-44.7,26.6-62.2l0,0c7.3-8.5,15.8-15.8,25.3-21.7
		c3.4-2.1,6.8-4.1,10.4-5.8l-0.9-1.8L368,411c-2.3,8-3.9,16.2-4.7,24.5c-0.4,4.6-0.7,9.1-0.7,13.6c0,13.8,2.1,27.3,6.2,40.5l0,0
		c5.3,16.9,13.7,32.5,25,46.2c11.3,13.8,24.9,25,40.5,33.5l0,0c16.1,8.8,33.7,14.1,52,15.9c4.5,0.4,9.1,0.7,13.7,0.7
		c3.8,0,7.6-0.2,11.3-0.5l-0.2-2l-1.6-1.2c-2.5,3.2-5,6.2-7.8,9.1l0,0l0,0L503.2,592.8l1.5,1.4c2.9-3,5.5-6.1,8.1-9.4l2.8-3.7
		l-4.6,0.4c-3.6,0.3-7.3,0.5-11,0.5c-4.4,0-8.8-0.2-13.3-0.7c-17.9-1.8-34.8-6.9-50.5-15.4l0,0c-15.1-8.2-28.3-19.2-39.3-32.5
		c-11-13.4-19.1-28.5-24.2-44.9l0,0l0,0c-4-12.8-6-26-6-39.3c0-4.4,0.2-8.8,0.7-13.2c0.8-8.1,2.3-16.1,4.5-23.8l1.3-4.4l-4.1,2
		c-3.7,1.8-7.3,3.8-10.8,6c-9.8,6.2-18.6,13.8-26.2,22.5l0,0c-15.7,18.2-25.2,40.5-27.6,64.5c-0.4,3.9-0.6,7.8-0.6,11.6
		c0,11.7,1.7,23.2,5.2,34.4l0,0l0,0c4.5,14.4,11.6,27.5,21.2,39.2l0,0c9.6,11.7,21.1,21.3,34.3,28.4c13.7,7.4,28.6,12,44.2,13.5
		c3.9,0.4,7.7,0.6,11.5,0.6c20,0,39.6-5.1,57.1-15.1c10.1-5.7,19.2-12.8,27.2-21.3l0,0L503.2,592.8z"/>
	<path d="M487.9,463.5c2.9,0.3,5.4-1.8,5.7-4.7c0.3-2.8-1.8-5.4-4.7-5.7c-2.8-0.3-5.4,1.8-5.7,4.7C483,460.7,485,463.2,487.9,463.5z
		"/>
	<path d="M446.7,511.6c-0.3,2.8,1.8,5.4,4.7,5.7c2.9,0.3,5.4-1.8,5.7-4.7c0.3-2.8-1.8-5.4-4.7-5.7
		C449.5,506.7,446.9,508.8,446.7,511.6z"/>
	<path d="M547.3,443.2c-2.8-0.3-5.4,1.8-5.7,4.7c-0.3,2.8,1.8,5.4,4.7,5.7c2.8,0.3,5.4-1.8,5.7-4.7
		C552.3,446,550.1,443.5,547.3,443.2z"/>
	<path d="M456.3,413.4c2.8,0.3,5.4-1.8,5.7-4.7c0.3-2.8-1.8-5.4-4.7-5.7c-2.8-0.3-5.4,1.8-5.7,4.7
		C451.3,410.6,453.4,413.1,456.3,413.4z"/>
	<path d="M415,461.5l5.2,0.5l-1,10.3c-0.3,2.8,1.8,5.4,4.7,5.7c2.8,0.3,5.4-1.8,5.7-4.7l1-10.3l5.2,0.5c2.8,0.3,5.4-1.8,5.7-4.7
		c0.3-2.9-1.8-5.4-4.7-5.7l-5.2-0.5l1-10.3c0.3-2.9-1.8-5.4-4.7-5.7c-2.9-0.3-5.4,1.8-5.7,4.7l-1,10.3l-5.2-0.5
		c-2.8-0.3-5.4,1.8-5.7,4.7C410.1,458.7,412.2,461.3,415,461.5z"/>
	<path d="M497.3,527l5.2,0.5l-1,10.3c-0.3,2.9,1.8,5.4,4.7,5.7c2.8,0.3,5.4-1.8,5.7-4.7l1-10.3l5.2,0.5c2.8,0.3,5.4-1.8,5.7-4.7
		c0.3-2.8-1.8-5.4-4.7-5.7l-5.2-0.5l1-10.3c0.3-2.8-1.8-5.4-4.7-5.7c-2.8-0.3-5.4,1.8-5.7,4.7l-1,10.3l-5.2-0.5
		c-2.8-0.3-5.4,1.8-5.7,4.7C492.4,524.2,494.5,526.7,497.3,527z"/>
	<g>
		<defs>
			
				<rect id="SVGID_1_" x="-203.1" y="123.5" transform="matrix(0.7071 -0.7071 0.7071 0.7071 -155.5697 195.5261)" width="722.7" height="324.1"/>
		</defs>
		<clipPath id="SVGID_2_">
			<use xlink:href="#SVGID_1_"  overflow="visible"/>
		</clipPath>
		<circle clip-path="url(#SVGID_2_)" fill="#FFCE54" cx="262.9" cy="370.3" r="120.2"/>
		<path clip-path="url(#SVGID_2_)" d="M404.9,215.1l-39.4,39.4c-3.6,3.6-3.6,9.5,0,13.1c3.6,3.6,9.5,3.6,13.1,0l39.4-39.4
			c3.6-3.6,3.6-9.5,0-13.1C414.4,211.5,408.6,211.5,404.9,215.1z"/>
		<path clip-path="url(#SVGID_2_)" d="M155.4,490.9L155.4,490.9c3.6-3.6,3.6-9.5,0-13.1c-3.6-3.6-9.5-3.6-13.1,0l-39.4,39.4l0,0
			c-3.6,3.6-3.6,9.5,0,13.1c3.6,3.6,9.5,3.6,13.1,0L155.4,490.9z"/>
		<path clip-path="url(#SVGID_2_)" d="M269.7,214.8L269.7,214.8l0-55.7l0,0c0-5.1-4.2-9.3-9.3-9.3c-5.1,0-9.3,4.2-9.3,9.3v55.7
			c0,5.1,4.2,9.3,9.3,9.3C265.6,224.1,269.7,219.9,269.7,214.8z"/>
		<path clip-path="url(#SVGID_2_)" d="M251.2,530.6L251.2,530.6l0,55.7l0,0c0,5.1,4.2,9.3,9.3,9.3c5.1,0,9.3-4.2,9.3-9.3l0,0v-55.7
			v0c0-5.1-4.2-9.3-9.3-9.3C255.3,521.3,251.2,525.5,251.2,530.6z"/>
		<path clip-path="url(#SVGID_2_)" d="M155.4,267.6c3.6-3.6,3.6-9.5,0-13.1L116,215.1c-3.6-3.6-9.5-3.6-13.1,0
			c-3.6,3.6-3.6,9.5,0,13.1l39.4,39.4l0,0C145.9,271.3,151.7,271.3,155.4,267.6z"/>
		<path clip-path="url(#SVGID_2_)" d="M365.5,477.8c-3.6,3.6-3.6,9.5,0,13.1l0,0l39.4,39.4c3.6,3.6,9.5,3.6,13.1,0
			c3.6-3.6,3.6-9.5,0-13.1l-39.4-39.4C375,474.2,369.2,474.2,365.5,477.8z"/>
		<path clip-path="url(#SVGID_2_)" d="M46.8,382l55.7,0l0,0c5.1,0,9.3-4.2,9.3-9.3c0-5.1-4.2-9.3-9.3-9.3l-55.7,0
			c-5.1,0-9.3,4.2-9.3,9.3C37.5,377.8,41.7,382,46.8,382L46.8,382z"/>
		<path clip-path="url(#SVGID_2_)" d="M474.1,363.4l-55.7,0l0,0c-5.1,0-9.3,4.2-9.3,9.3c0,5.1,4.2,9.3,9.3,9.3l0,0l55.7,0
			c5.1,0,9.3-4.2,9.3-9.3C483.4,367.6,479.2,363.4,474.1,363.4L474.1,363.4z"/>
		<path clip-path="url(#SVGID_2_)" d="M168.5,280.8c-50.8,50.8-50.8,133.1,0,183.9s133.1,50.8,183.9,0s50.8-133.1,0-183.9
			C301.6,230,219.3,230,168.5,280.8z M371.9,372.7c0,29.8-11.6,57.8-32.6,78.8c-21.1,21.1-49.1,32.6-78.8,32.6
			c-29.8,0-57.8-11.6-78.8-32.6c-21.1-21.1-32.6-49-32.6-78.8c0-29.8,11.6-57.8,32.6-78.8c21-21,49-32.6,78.8-32.6
			c29.8,0,57.8,11.6,78.8,32.7C360.3,315,371.9,342.9,371.9,372.7z"/>
	</g>
	<rect x="2.2" y="393.5" transform="matrix(0.7071 -0.7071 0.7071 0.7071 -200.4927 317.7331)" width="562.3" height="14.8"/>
	<polygon points="487.3,207.3 486.3,206.4 89.7,603 81.2,594.5 476.9,198.8 486.3,208.3 487.3,207.3 486.3,206.4 487.3,207.3 
		488.3,206.4 476.9,195 77.4,594.5 89.7,606.8 489.2,207.3 488.3,206.4 	"/>
</g>
</svg>
