<svg xmlns="http://www.w3.org/2000/svg" viewBox="-2312.967 247.798 91.068 70.202">
  <defs>
    <style>
      .cls-1 {
        fill: #ffcea4;
      }

      .cls-2 {
        fill: #fc6e51;
      }
    </style>
  </defs>
  <g id="sunrise" transform="translate(-2312.967 247.798)">
    <path id="Path_5941" data-name="Path 5941" class="cls-1" d="M202.061,352.08a21.226,21.226,0,1,0-39.27,0Z" transform="translate(-136.54 -302.714)"/>
    <path id="Path_5942" data-name="Path 5942" d="M89.171,343.8H67.616a22.486,22.486,0,0,0,.719-5.691,22.809,22.809,0,0,0-45.618,0,22.486,22.486,0,0,0,.719,5.691H1.9a1.9,1.9,0,0,0,0,3.794H89.171a1.9,1.9,0,0,0,0-3.794Zm-62.645-5.706a19.015,19.015,0,1,1,38.03,0,19.145,19.145,0,0,1-.872,5.691h-36.3A18.986,18.986,0,0,1,26.526,338.094Z" transform="translate(0 -296.361)"/>
    <path id="Path_5943" data-name="Path 5943" d="M26.7,455.794H38.079a1.9,1.9,0,1,0,0-3.794H26.7a1.9,1.9,0,1,0,0,3.794Z" transform="translate(-21.006 -412.149)"/>
    <path id="Path_5944" data-name="Path 5944" d="M473.2,452a1.9,1.9,0,0,0,0,3.794h11.382a1.9,1.9,0,1,0,0-3.794H473.2Z" transform="translate(-399.201 -412.149)"/>
    <path id="Path_5945" data-name="Path 5945" d="M420.043,279.111h0l8.047-8.047h0a1.893,1.893,0,0,0-2.677-2.677h0l-8.062,8.031h0a1.9,1.9,0,0,0,2.692,2.692Z" transform="translate(-353.039 -256.149)"/>
    <path id="Path_5946" data-name="Path 5946" d="M285.2,204.779a1.9,1.9,0,1,0,3.794,0h0V193.4h0a1.9,1.9,0,1,0-3.794,0h0v11.382Z" transform="translate(-241.571 -191.5)"/>
    <path id="Path_5947" data-name="Path 5947" d="M101.651,271.064l8.047,8.047h0a1.893,1.893,0,1,0,2.677-2.677h0l-8.047-8.047h0a1.875,1.875,0,0,0-2.677,0,1.9,1.9,0,0,0,0,2.677Z" transform="translate(-85.634 -256.149)"/>
    <path id="Path_5948" data-name="Path 5948" class="cls-2" d="M270.19,555.774l-4.023-4.023h0a1.894,1.894,0,0,0-1.346-.551,1.949,1.949,0,0,0-1.346.551h0l-4.023,4.023h0a1.9,1.9,0,0,0,0,2.677,1.875,1.875,0,0,0,2.677,0h0l.78-.78v6.808h0a1.9,1.9,0,0,0,3.794,0h0v-6.792l.78.78h0a1.909,1.909,0,0,0,2.708-2.692Z" transform="translate(-219.294 -496.174)"/>
  </g>
</svg>
