<svg xmlns="http://www.w3.org/2000/svg" viewBox="-1972.367 248.9 91.068 70.171">
  <defs>
    <style>
      .cls-1 {
        fill: #f17754;
      }

      .cls-2 {
        fill: #2d4da8;
      }
    </style>
  </defs>
  <g id="sunset" transform="translate(-1972.367 248.9)">
    <path id="Path_5933" data-name="Path 5933" class="cls-1" d="M199.845,354.5a21.218,21.218,0,1,0-39.254,0Z" transform="translate(-134.676 -304.747)"/>
    <path id="Path_5934" data-name="Path 5934" d="M89.171,343.8H67.616a22.486,22.486,0,0,0,.719-5.691,22.809,22.809,0,0,0-45.618,0,22.486,22.486,0,0,0,.719,5.691H1.9a1.9,1.9,0,0,0,0,3.794H89.171a1.9,1.9,0,0,0,0-3.794Zm-62.645-5.691a19.015,19.015,0,1,1,38.03,0,19.146,19.146,0,0,1-.872,5.691h-36.3A19.135,19.135,0,0,1,26.526,338.109Z" transform="translate(0 -296.361)"/>
    <path id="Path_5935" data-name="Path 5935" d="M26.7,455.794H38.079a1.9,1.9,0,1,0,0-3.794H26.7a1.9,1.9,0,1,0,0,3.794Z" transform="translate(-21.006 -412.149)"/>
    <path id="Path_5936" data-name="Path 5936" d="M473.2,452h0a1.9,1.9,0,0,0,0,3.794h11.382a1.9,1.9,0,1,0,0-3.794H473.2Z" transform="translate(-399.201 -412.149)"/>
    <path id="Path_5937" data-name="Path 5937" d="M420.043,279.175h0l8.047-8.047h0a1.893,1.893,0,0,0-2.677-2.677h0l-8.062,8.031h0a1.9,1.9,0,0,0,2.692,2.692Z" transform="translate(-353.039 -256.212)"/>
    <path id="Path_5938" data-name="Path 5938" d="M285.2,204.779a1.9,1.9,0,1,0,3.794,0h0V193.4h0a1.9,1.9,0,1,0-3.794,0h0v11.382Z" transform="translate(-241.571 -191.5)"/>
    <path id="Path_5939" data-name="Path 5939" d="M101.651,271.128l8.047,8.047h0a1.893,1.893,0,1,0,2.677-2.677h0l-8.047-8.047h0a1.893,1.893,0,0,0-2.677,2.677Z" transform="translate(-85.634 -256.212)"/>
    <path id="Path_5940" data-name="Path 5940" class="cls-2" d="M267.682,559.024h0l-.78.78V553h0a1.9,1.9,0,1,0-3.794,0h0v6.792l-.78-.78h0a1.875,1.875,0,0,0-2.677,0,1.9,1.9,0,0,0,0,2.677h0l4.023,4.023h0a1.884,1.884,0,0,0,1.346.551,1.95,1.95,0,0,0,1.346-.551h0l4.023-4.023h0a1.9,1.9,0,0,0,0-2.677A1.954,1.954,0,0,0,267.682,559.024Z" transform="translate(-219.463 -496.089)"/>
  </g>
</svg>
